<svg id="Ebene_1" data-name="Ebene 1" xmlns="http://www.w3.org/2000/svg" viewBox="0 0 544 410"><defs><style>.cls-1{fill:#1a8cff;}.cls-2{fill:#007cff;}.cls-3{fill:#0065eb;}.cls-4{fill:#0050d5;}.cls-5{fill:#47a1ff;}.cls-6{fill:#b2deff;}.cls-7{fill:#e9f7ff;}.cls-8{fill:#8bcbff;}.cls-9{fill:#fff;}.cls-10{fill:#67b3ff;}.cls-11{fill:#ffda00;}.cls-12{fill:#ffb600;}.cls-13{fill:#fff727;}</style></defs><path class="cls-1" d="M493.2,360,51,360.28a11.85,11.85,0,0,1-11.86-11.85L39,102.28a33.38,33.38,0,0,1,33.29-33.4l399.14-.26A33.37,33.37,0,0,1,504.8,102v0l.25,246.15A11.86,11.86,0,0,1,493.2,360Z"/><path class="cls-2" d="M505.06,342.58,504.87,78A10.53,10.53,0,0,0,494.1,67.53H49.71A10.78,10.78,0,0,0,38.94,78.3l.19,264.59a9.5,9.5,0,0,0,9.52,9.5h0l446.91-.29a9.52,9.52,0,0,0,9.5-9.52Z"/><path class="cls-2" d="M539.05,361.75l-534.24.4a.6.6,0,0,0-.62.54v3.22a6.43,6.43,0,0,0,4.55,6l8.48,2.9a48,48,0,0,0,15.4,2.53l480-.36a42.54,42.54,0,0,0,14.09-2.42l10.4-3.66a3.89,3.89,0,0,0,2.67-3.55v-4.06C539.79,361.73,540,361.79,539.05,361.75Z"/><path class="cls-3" d="M238.15,359.16v2.35a2.71,2.71,0,0,0,2.71,2.71h0l62.07-.05a2.93,2.93,0,0,0,2.92-2.94v-2.12Z"/><rect class="cls-4" x="47.8" y="76.55" width="448.41" height="268.05"/><path class="cls-5" d="M448.94,233.14l-84.81.63c0-2.47,0-5.4,0-8.7,0-29.55-.08-80.52-.1-82.58a10.11,10.11,0,1,0-20.22.15c0,2.89-.2,27.37-.2,27.37H449.06Z"/><path class="cls-6" d="M480.76,156.93l-.06-7.63c0-3.38-.05-6.89-.06-8.17a10.11,10.11,0,0,0-10.19-10L353.67,132a10.11,10.11,0,0,1,10.19,10c0,2.06.07,53,.1,82.58l.34,45.82.08,11.84c0,1.75,0,3.22,0,4,0,5.58,5.17,9.52,10.75,9.48l106.67-.8Z"/><path class="cls-7" d="M373.82,295.59s0,.06,0,.09h1.35A11.9,11.9,0,0,1,373.82,295.59Z"/><path class="cls-7" d="M491.75,268.89l-106.66.79c0,4.65.09,13.29.11,15.8a10.13,10.13,0,0,1-10,10.19l106.67-.8a10.11,10.11,0,0,0,10-10.18C491.84,281.2,491.75,268.89,491.75,268.89Z"/><rect class="cls-8" x="381.84" y="197.79" width="79.74" height="5.53" transform="translate(-1.47 3.13) rotate(-0.42)"/><rect class="cls-8" x="381.84" y="178" width="79.74" height="5.53" transform="matrix(1, -0.01, 0.01, 1, -1.33, 3.13)"/><rect class="cls-8" x="381.84" y="158.22" width="79.74" height="5.53" transform="translate(-1.18 3.13) rotate(-0.42)"/><rect class="cls-8" x="381.98" y="217.58" width="79.74" height="5.53" transform="translate(-1.62 3.13) rotate(-0.42)"/><rect class="cls-8" x="382.13" y="237.37" width="55.53" height="5.53" transform="translate(-1.77 3.04) rotate(-0.42)"/><path class="cls-9" d="M451.62,241l-1.25,23.88a3,3,0,0,0,4.57,2.67l20-13.22a13.22,13.22,0,0,0-6.5-12.06C456.93,235.49,451.62,241,451.62,241Z"/><path class="cls-7" d="M450.48,263.28l-.11,1.62a3,3,0,0,0,4.57,2.67l20-13.22s1.49-16.33-2.28-8.79A32.81,32.81,0,0,1,450.48,263.28Z"/><rect class="cls-1" x="488.23" y="141.54" width="15.86" height="100.72" transform="translate(166.49 -225.62) rotate(30.56)"/><polygon class="cls-2" points="480.45 245.49 477.38 239.3 528.6 152.56 533.56 158.76 480.45 245.49"/><polygon class="cls-5" points="463.73 231.23 457.73 230.19 507.12 143.15 514.94 144.5 463.73 231.23"/><rect class="cls-5" x="483.99" y="148.72" width="15.86" height="100.72" transform="translate(169.55 -222.46) rotate(30.56)"/><polygon class="cls-1" points="477.61 250.1 473.14 246.48 524.36 159.75 529.32 165.94 477.61 250.1"/><polygon class="cls-10" points="459.49 238.41 455.8 238.72 502.88 150.33 510.7 151.68 459.49 238.41"/><rect class="cls-11" x="481.65" y="152.68" width="15.86" height="100.72" transform="translate(171.24 -220.72) rotate(30.56)"/><polygon class="cls-12" points="475 254.34 470.81 250.44 522.02 163.71 526.98 169.9 475 254.34"/><polygon class="cls-13" points="457.15 242.37 451.62 241.02 500.54 154.29 508.36 155.64 457.15 242.37"/><path class="cls-2" d="M450.79,258.9l-.06.79-.36,5.21a3,3,0,0,0,4.57,2.67l4.88-3.22h0a9.27,9.27,0,0,0-3.68-4.14A11,11,0,0,0,450.79,258.9Z"/><g id="Page-1"><g id="Black-Next.js"><g id="next-black"><g id="EXT-_-Type-something" data-name="EXT-+-Type-something"><path id="EXT" class="cls-7" d="M143.72,183.41h45.05v3.53H147.85v26.81h38.5v3.53h-38.5v29.44h41.43v3.52H143.72Zm49.08,0h4.74l21.17,29.44,21.67-29.44L269.91,146,221.43,216l25,34.37h-4.94L218.81,219,196,250.34h-4.84L216.39,216Zm55.54,3.53v-3.53h51.31v3.53H276v63.4h-4.13v-63.4Z"/><polygon id="Type-something" class="cls-7" points="87.37 183.41 92.51 183.41 163.77 289.35 134.34 250.34 91.7 188.45 91.5 250.34 87.37 250.34 87.37 183.41"/></g><path id="_.JS" data-name=".JS" class="cls-7" d="M299.25,245.71a1.52,1.52,0,1,0-1.52-1.51A1.56,1.56,0,0,0,299.25,245.71Zm4-3.93c0,2.52,1.81,4.13,4.43,4.13,2.82,0,4.44-1.71,4.44-4.54V231.19h-2.22v10.18c0,1.62-.81,2.52-2.22,2.52a2.07,2.07,0,0,1-2.22-2h-2.21Zm11.89-.1c.2,2.62,2.32,4.23,5.55,4.23,3.42,0,5.54-1.71,5.54-4.54,0-2.21-1.21-3.32-4.23-4l-1.62-.4c-1.91-.41-2.62-1-2.62-2,0-1.31,1.21-2.11,2.92-2.11s2.83.8,3,2.11H326c-.1-2.42-2.32-4.13-5.25-4.13-3.12,0-5.24,1.71-5.24,4.33,0,2.12,1.21,3.43,3.83,4l1.92.4c1.91.4,2.72,1.11,2.72,2.22,0,1.31-1.31,2.21-3.12,2.21s-3.33-.9-3.43-2.21h-2.22Z"/></g></g></g></svg>